HIERARCHY
ROOT joint_Root
{
	OFFSET 0.0 0.0 0.0
	CHANNELS 6 Xposition Yposition Zposition Zrotation Xrotation Yrotation 
	JOINT Hips
	{
		OFFSET -0.726466 93.3139 -2.00062
		CHANNELS 6 Xposition Yposition Zposition Zrotation Xrotation Yrotation 
		JOINT Spine
		{
			OFFSET 15.7357 0.0 0.0
			CHANNELS 6 Xposition Yposition Zposition Zrotation Xrotation Yrotation 
			JOINT Chest
			{
				OFFSET 8.98455 -0.406207 0.0
				CHANNELS 6 Xposition Yposition Zposition Zrotation Xrotation Yrotation 
				JOINT Neck
				{
					OFFSET 16.3773 0.0 0.0
					CHANNELS 6 Xposition Yposition Zposition Zrotation Xrotation Yrotation 
					JOINT Head
					{
						OFFSET 6.45672 0.0 0.0
						CHANNELS 6 Xposition Yposition Zposition Zrotation Xrotation Yrotation 
						End Site
						{
							OFFSET 0.0 0.0 0.0
						}
					}
				}
				JOINT Shoulder_L
				{
					OFFSET 12.9942 -0.242716 4.98039
					CHANNELS 6 Xposition Yposition Zposition Zrotation Xrotation Yrotation 
					JOINT UpperArm_L
					{
						OFFSET 5.34809 0.0 0.0
						CHANNELS 6 Xposition Yposition Zposition Zrotation Xrotation Yrotation 
						JOINT LowerArm_L
						{
							OFFSET 24.3286 1.87007e-05 0.0
							CHANNELS 6 Xposition Yposition Zposition Zrotation Xrotation Yrotation 
							JOINT Hand_L
							{
								OFFSET 22.2916 0.0 0.0
								CHANNELS 6 Xposition Yposition Zposition Zrotation Xrotation Yrotation 
								End Site
								{
									OFFSET 0.0 0.0 0.0
								}
							}
						}
					}
				}
				JOINT Shoulder_R
				{
					OFFSET 12.9945 -0.242716 -4.98039
					CHANNELS 6 Xposition Yposition Zposition Zrotation Xrotation Yrotation 
					JOINT UpperArm_R
					{
						OFFSET -5.34813 0.0 0.0
						CHANNELS 6 Xposition Yposition Zposition Zrotation Xrotation Yrotation 
						JOINT LowerArm_R
						{
							OFFSET -24.3289 0.000322201 0.0
							CHANNELS 6 Xposition Yposition Zposition Zrotation Xrotation Yrotation 
							JOINT Hand_R
							{
								OFFSET -22.2915 -0.000108084 0.0
								CHANNELS 6 Xposition Yposition Zposition Zrotation Xrotation Yrotation 
								End Site
								{
									OFFSET 0.0 0.0 0.0
								}
							}
						}
					}
				}
			}
		}
		JOINT UpperLeg_L
		{
			OFFSET -2.19248 -6.46944 0.0
			CHANNELS 6 Xposition Yposition Zposition Zrotation Xrotation Yrotation 
			JOINT LowerLeg_L
			{
				OFFSET 39.0811 0.0 -1.23785e-05
				CHANNELS 6 Xposition Yposition Zposition Zrotation Xrotation Yrotation 
				JOINT Foot_L
				{
					OFFSET 40.9854 0.0 -1.26872e-05
					CHANNELS 6 Xposition Yposition Zposition Zrotation Xrotation Yrotation 
					JOINT Toes_L
					{
						OFFSET 11.7543 0.0 0.0
						CHANNELS 6 Xposition Yposition Zposition Zrotation Xrotation Yrotation 
						End Site
						{
							OFFSET 0.0 0.0 0.0
						}
					}
				}
			}
		}
		JOINT UpperLeg_R
		{
			OFFSET -2.19251 6.46944 0.0
			CHANNELS 6 Xposition Yposition Zposition Zrotation Xrotation Yrotation 
			JOINT LowerLeg_R
			{
				OFFSET -39.0811 -0.00228153 -0.0401928
				CHANNELS 6 Xposition Yposition Zposition Zrotation Xrotation Yrotation 
				JOINT Foot_R
				{
					OFFSET -40.9854 0.0 0.0
					CHANNELS 6 Xposition Yposition Zposition Zrotation Xrotation Yrotation 
					JOINT Toes_R
					{
						OFFSET -11.7543 0.0 0.0
						CHANNELS 6 Xposition Yposition Zposition Zrotation Xrotation Yrotation 
						End Site
						{
							OFFSET 0.0 0.0 0.0
						}
					}
				}
			}
		}
	}
}
MOTION
Frames:	7
Frame Time:	0.0333333
0.000000 0.000000 0.000000 0.000000 0.000000 -0.000000 -1.049870 91.718700 -0.660312 88.165800 -4.581770 5.327300 15.735700 0.000005 -0.000001 73.276300 86.042100 -69.676600 8.984550 -0.406207 -0.000000 -0.095012 -2.523940 7.193900 16.377300 -0.000001 -0.000001 3.537560 1.325760 -3.421260 6.456720 -0.000001 -0.000000 1.615790 1.899490 -1.743080 12.994200 -0.242716 4.980390 -83.372000 -14.149400 -64.576000 5.348090 -0.000007 -0.000001 -42.397000 -56.392400 -69.310600 24.328600 0.000019 0.000005 -7.053160 -4.446170 -57.930300 22.291600 -0.000001 0.000005 14.907000 5.656710 -15.692700 12.994500 -0.242716 -4.980390 91.548400 -4.518030 -71.059500 -5.348130 -0.000001 -0.000004 -63.188100 80.351100 13.186200 -24.328900 0.000322 -0.000009 21.591700 2.029930 -84.886400 -22.291500 -0.000108 -0.000004 47.511600 5.662450 -25.893100 -2.192480 -6.469440 -0.000000 -169.726000 -18.896300 -1.500370 39.081100 -0.000007 -0.000012 -0.165802 0.356096 24.967500 40.985400 -0.000006 -0.000013 -5.864150 -1.614960 -65.857100 11.754300 -0.000000 0.000003 -0.000052 -0.000583 -16.600200 -2.192510 6.469440 -0.000001 174.928000 20.652500 177.933000 -39.081100 -0.002282 -0.040193 0.039459 -0.078372 24.759900 -40.985400 0.000008 0.000006 0.768820 3.516590 -65.580800 -11.754300 -0.000006 -0.000006 -0.005887 -0.069806 -19.414000
0.000000 0.000000 0.000000 0.000000 0.000000 -0.000000 -1.050840 91.720600 -0.661064 88.165200 -4.550540 5.291450 15.735700 0.000005 -0.000001 73.308600 86.016300 -69.714600 8.984550 -0.406207 -0.000000 -0.044270 -2.532460 7.183610 16.377300 -0.000001 -0.000001 3.529340 1.335900 -3.437890 6.456720 -0.000001 -0.000000 1.699140 1.900490 -1.816660 12.994200 -0.242716 4.980390 -83.376900 -14.132500 -64.566800 5.348090 -0.000007 -0.000001 -42.420000 -56.469700 -69.249300 24.328600 0.000019 0.000005 -7.076230 -4.448600 -58.001400 22.291600 -0.000001 0.000005 14.769400 5.656370 -15.657100 12.994500 -0.242716 -4.980390 91.538900 -4.495640 -71.081100 -5.348130 -0.000001 -0.000004 -63.324000 80.255000 13.313800 -24.328900 0.000322 -0.000009 21.603500 2.047210 -84.846200 -22.291500 -0.000108 -0.000004 47.533200 5.662200 -25.922500 -2.192480 -6.469440 -0.000000 -169.726000 -18.937100 -1.541900 39.081100 -0.000007 -0.000012 -0.167964 0.360886 24.958400 40.985400 -0.000006 -0.000013 -5.851720 -1.555470 -65.838200 11.754300 -0.000000 0.000003 -0.000053 -0.000599 -16.600800 -2.192510 6.469440 -0.000001 174.952000 20.648400 177.890000 -39.081100 -0.002282 -0.040193 0.040233 -0.079993 24.775500 -40.985400 0.000008 0.000006 0.815376 3.474510 -65.580000 -11.754300 -0.000006 -0.000006 -0.005890 -0.069835 -19.415200
0.000000 0.000000 0.000000 0.000000 0.000000 -0.000000 -1.047700 91.721600 -0.666347 88.172500 -4.502020 5.244150 15.735700 0.000005 -0.000001 73.266300 85.992700 -69.678800 8.984550 -0.406207 -0.000000 -0.000324 -2.549870 7.171540 16.377300 -0.000001 -0.000001 3.526150 1.304340 -3.461640 6.456720 -0.000001 -0.000000 1.715940 1.875050 -1.895290 12.994200 -0.242716 4.980390 -83.360600 -14.130600 -64.508400 5.348090 -0.000007 -0.000001 -42.585100 -56.479400 -69.292600 24.328600 0.000019 0.000005 -7.119270 -4.458000 -58.104700 22.291600 -0.000001 0.000005 14.777900 5.656730 -15.695200 12.994500 -0.242716 -4.980390 91.533300 -4.472800 -71.055400 -5.348130 -0.000001 -0.000004 -63.097100 80.153100 13.085600 -24.328900 0.000322 -0.000009 21.497300 2.045460 -84.822700 -22.291500 -0.000108 -0.000004 47.414100 5.660290 -26.147900 -2.192480 -6.469440 -0.000000 -169.772000 -18.906100 -1.619040 39.081100 -0.000007 -0.000012 -0.163473 0.351089 24.967700 40.985400 -0.000006 -0.000013 -5.841680 -1.566520 -65.832500 11.754300 -0.000000 0.000003 -0.000053 -0.000598 -16.600800 -2.192510 6.469440 -0.000001 174.958000 20.670100 177.853000 -39.081100 -0.002282 -0.040193 0.040007 -0.079582 24.753600 -40.985400 0.000008 0.000006 0.798050 3.454640 -65.585500 -11.754300 -0.000006 -0.000006 -0.005754 -0.068586 -19.364300
0.000000 0.000000 0.000000 0.000000 0.000000 -0.000000 -1.045500 91.730200 -0.677417 88.184500 -4.405220 5.226560 15.735700 0.000005 -0.000001 73.298300 85.951100 -69.718400 8.984550 -0.406207 -0.000000 0.081116 -2.566430 7.157960 16.377300 -0.000001 -0.000001 3.527200 1.282940 -3.474820 6.456720 -0.000001 -0.000000 1.661200 1.817170 -1.934290 12.994200 -0.242716 4.980390 -83.384000 -14.054700 -64.470200 5.348090 -0.000007 -0.000001 -42.547200 -56.463300 -69.285100 24.328600 0.000019 0.000005 -7.197660 -4.503410 -58.129200 22.291600 -0.000001 0.000005 14.820600 5.656520 -15.672300 12.994500 -0.242716 -4.980390 91.524400 -4.429200 -70.986500 -5.348130 -0.000001 -0.000004 -62.671300 80.041900 12.666700 -24.328900 0.000322 -0.000009 21.540000 2.046390 -84.831600 -22.291500 -0.000108 -0.000004 47.196800 5.659560 -26.232000 -2.192480 -6.469440 -0.000000 -169.810000 -18.841700 -1.651110 39.081100 -0.000007 -0.000012 -0.162672 0.350117 24.920900 40.985400 -0.000006 -0.000013 -5.826540 -1.550620 -65.790300 11.754300 -0.000000 0.000003 -0.000060 -0.000663 -16.603200 -2.192510 6.469440 -0.000001 174.950000 20.730400 177.836000 -39.081100 -0.002282 -0.040193 0.040769 -0.081252 24.749200 -40.985400 0.000008 0.000006 0.838797 3.428290 -65.551400 -11.754300 -0.000006 -0.000006 -0.005988 -0.070724 -19.451400
0.000000 0.000000 0.000000 0.000000 0.000000 -0.000000 -1.043090 91.729400 -0.692225 88.171000 -4.339490 5.154200 15.735700 0.000005 -0.000001 73.399500 85.930100 -69.817700 8.984550 -0.406207 -0.000000 0.125429 -2.563450 7.162810 16.377300 -0.000001 -0.000001 3.513790 1.253510 -3.481680 6.456720 -0.000001 -0.000000 1.666520 1.766070 -1.955190 12.994200 -0.242716 4.980390 -83.385100 -14.045300 -64.459300 5.348090 -0.000007 -0.000001 -42.275100 -56.468100 -68.936200 24.328600 0.000019 0.000005 -7.217510 -4.488930 -58.283100 22.291600 -0.000001 0.000005 14.773600 5.656890 -15.712500 12.994500 -0.242716 -4.980390 91.513600 -4.377270 -70.904300 -5.348130 -0.000001 -0.000004 -62.300400 79.991400 12.332400 -24.328900 0.000322 -0.000009 21.501100 2.029320 -84.864400 -22.291500 -0.000108 -0.000004 47.187200 5.658950 -26.302200 -2.192480 -6.469440 -0.000000 -169.821000 -18.826700 -1.761940 39.081100 -0.000007 -0.000012 -0.164643 0.353978 24.944400 40.985400 -0.000006 -0.000013 -5.816550 -1.504910 -65.783000 11.754300 -0.000000 0.000003 -0.000053 -0.000591 -16.600500 -2.192510 6.469440 -0.000001 175.000000 20.745400 177.774000 -39.081100 -0.002282 -0.040193 0.040366 -0.080539 24.705600 -40.985400 0.000008 0.000006 0.793454 3.342350 -65.556600 -11.754300 -0.000006 -0.000006 -0.005721 -0.068276 -19.351600
0.000000 0.000000 0.000000 0.000000 0.000000 -0.000000 -1.032410 91.739800 -0.709720 88.167400 -4.283850 5.107250 15.735700 0.000005 -0.000001 73.472300 85.895100 -69.893200 8.984550 -0.406207 -0.000000 0.195733 -2.571060 7.158970 16.377300 -0.000001 -0.000001 3.553300 1.274620 -3.502970 6.456720 -0.000001 -0.000000 1.599150 1.790020 -1.859210 12.994200 -0.242716 4.980390 -83.379500 -13.996400 -64.364000 5.348090 -0.000007 -0.000001 -41.710900 -56.412100 -68.362300 24.328600 0.000019 0.000005 -7.264580 -4.481110 -58.495500 22.291600 -0.000001 0.000005 14.777200 5.656820 -15.705200 12.994500 -0.242716 -4.980390 91.493300 -4.296320 -70.812600 -5.348130 -0.000001 -0.000004 -61.409600 80.005000 11.497500 -24.328900 0.000322 -0.000009 21.515800 2.031320 -84.863200 -22.291500 -0.000108 -0.000004 47.216200 5.658290 -26.375400 -2.192480 -6.469440 -0.000000 -169.853000 -18.817000 -1.818770 39.081100 -0.000007 -0.000012 -0.161752 0.348410 24.903600 40.985400 -0.000006 -0.000013 -5.792060 -1.475710 -65.744400 11.754300 -0.000000 0.000003 -0.000052 -0.000587 -16.600300 -2.192510 6.469440 -0.000001 175.020000 20.795900 177.709000 -39.081100 -0.002282 -0.040193 0.040564 -0.080965 24.706800 -40.985400 0.000008 0.000006 0.831613 3.319510 -65.489400 -11.754300 -0.000006 -0.000006 -0.005694 -0.068029 -19.341600
0.000000 0.000000 0.000000 0.000000 0.000000 -0.000000 -1.027950 91.738300 -0.722611 88.181100 -4.242070 5.051680 15.735700 0.000005 -0.000001 73.577200 85.856300 -70.013500 8.984550 -0.406207 -0.000000 0.274113 -2.575100 7.129680 16.377300 -0.000001 -0.000001 3.632500 1.266210 -3.480820 6.456720 -0.000001 -0.000000 1.503200 1.803560 -1.792450 12.994200 -0.242716 4.980390 -83.338000 -13.998500 -64.226100 5.348090 -0.000007 -0.000001 -40.933500 -56.334200 -67.482800 24.328600 0.000019 0.000005 -7.340540 -4.460490 -58.880100 22.291600 -0.000001 0.000005 14.743000 5.656160 -15.634800 12.994500 -0.242716 -4.980390 91.478500 -4.208540 -70.623300 -5.348130 -0.000001 -0.000004 -59.477000 80.162900 9.591330 -24.328900 0.000322 -0.000009 21.536200 2.034250 -84.861200 -22.291500 -0.000108 -0.000004 47.265100 5.657860 -26.423100 -2.192480 -6.469440 -0.000000 -169.896000 -18.820400 -1.912380 39.081100 -0.000007 -0.000012 -0.162246 0.349161 24.923300 40.985400 -0.000006 -0.000013 -5.777720 -1.458230 -65.735300 11.754300 -0.000000 0.000003 -0.000056 -0.000626 -16.601800 -2.192510 6.469440 -0.000001 175.023000 20.820100 177.656000 -39.081100 -0.002282 -0.040193 0.041514 -0.083065 24.697600 -40.985400 0.000008 0.000006 0.876629 3.313770 -65.525100 -11.754300 -0.000006 -0.000006 -0.005734 -0.068402 -19.356700
